<svg preserveAspectRatio="none" width="100%" height="100%" overflow="visible" style="display: block;" viewBox="0 0 1706 211" fill="none" xmlns="http://www.w3.org/2000/svg">
<path id="Ellipse 1" d="M853 2.5C1088.48 2.5 1301.62 14.3052 1455.86 33.3809C1532.99 42.9208 1595.29 54.2682 1638.27 66.834C1659.77 73.1223 1676.29 79.6755 1687.38 86.3779C1698.64 93.1884 1703.5 99.6519 1703.5 105.5C1703.5 111.348 1698.64 117.812 1687.38 124.622C1676.29 131.325 1659.77 137.878 1638.27 144.166C1595.29 156.732 1532.99 168.079 1455.86 177.619C1301.62 196.695 1088.48 208.5 853 208.5C617.52 208.5 404.377 196.695 250.145 177.619C173.011 168.079 110.707 156.732 67.7344 144.166C46.2295 137.878 29.7122 131.325 18.623 124.622C7.3552 117.812 2.5 111.348 2.5 105.5C2.5 99.6519 7.3552 93.1884 18.623 86.3779C29.7122 79.6755 46.2295 73.1223 67.7344 66.834C110.707 54.2682 173.011 42.9208 250.145 33.3809C404.377 14.3052 617.52 2.5 853 2.5Z" fill="var(--fill-0, white)" stroke="var(--stroke-0, black)" stroke-width="5"/>
</svg>
