<svg preserveAspectRatio="none" width="100%" height="100%" overflow="visible" style="display: block;" viewBox="0 0 441 39" fill="none" xmlns="http://www.w3.org/2000/svg">
<g id="WELOVEPITCHING" clip-path="url(#clip0_5_673)">
<path id="Vector" d="M171.499 4.17772C168.624 1.81284 164.638 0.630406 159.538 0.630406H136.2C137.129 1.21311 138.003 1.89463 138.803 2.67156C141.562 5.36356 143.169 8.93814 143.33 12.7376C143.487 16.4587 142.25 20.0776 139.84 22.9468C139.69 23.1649 139.519 23.3693 139.334 23.5499L134.649 28.1195V38.3662H146.879V27.5402H159.542C164.642 27.5402 168.628 26.3578 171.503 23.9929C174.377 21.628 175.813 18.3261 175.813 14.087C175.813 9.84797 174.377 6.546 171.503 4.18113L171.499 4.17772ZM162.473 16.7143C161.627 17.3447 160.433 17.6616 158.889 17.6616H146.872V10.5125H158.889C160.433 10.5125 161.627 10.8259 162.473 11.4598C163.318 12.0902 163.737 12.9659 163.737 14.087C163.737 15.2081 163.314 16.0839 162.473 16.7143Z" fill="var(--fill-0, black)"/>
<path id="Vector_2" d="M78.0697 24.228H100.217L99.525 23.5533C99.3363 23.3693 99.1687 23.1683 99.0185 22.9468C96.9924 20.5342 95.7977 17.5934 95.5637 14.5028H78.0732V10.6147H95.7733C96.3392 7.6194 97.8203 4.85583 100.056 2.67156C100.856 1.89122 101.729 1.21311 102.658 0.630406H66.0566V38.3662H103.773V28.3785H78.0732V24.228H78.0697Z" fill="var(--fill-0, black)"/>
<path id="Vector_3" d="M44.7724 22.7048L38.0934 0.630406H26.723L20.044 22.7048L12.6629 0.630406H0L12.6629 38.3696H25.3782L32.2213 16.2917L39.0087 38.3696H51.7798L64.4392 0.630406H52.1571L44.7724 22.7048Z" fill="var(--fill-0, black)"/>
<path id="Vector_4" d="M190.733 0.630406H178.503V38.3662H190.733V0.630406Z" fill="var(--fill-0, black)"/>
<path id="Vector_5" d="M379.74 21.6553L360.342 0.630406H348.22V38.3696H360.181V16.0294L380.871 38.3696H391.7V0.630406H379.74V21.6553Z" fill="var(--fill-0, black)"/>
<path id="Vector_6" d="M237.444 0.630406H193.751V10.6181H209.481V38.3696H221.714V10.6181H237.444V0.630406Z" fill="var(--fill-0, black)"/>
<path id="Vector_7" d="M343.91 0.630406H331.68V38.3662H343.91V0.630406Z" fill="var(--fill-0, black)"/>
<path id="Vector_8" d="M415.3 16.503V25.4889H428.341C427.513 26.5759 426.213 27.4244 424.435 28.0377C422.657 28.6511 420.6 28.9578 418.266 28.9578C415.035 28.9578 412.366 28.1093 410.263 26.4089C408.164 24.7085 407.112 22.4936 407.112 19.7607C407.112 17.0278 408.164 14.6186 410.263 12.8501C412.366 11.0815 415.014 10.1955 418.21 10.1955C420.725 10.1955 422.842 10.7033 424.568 11.7187C426.294 12.7342 427.478 14.1347 428.124 15.9237L440.354 12.0356C438.81 8.28729 436.134 5.34312 432.326 3.20655C428.519 1.06999 423.992 0 418.748 0C411.636 0 405.834 1.81284 401.345 5.43853C396.856 9.06422 394.61 13.7531 394.61 19.4983C394.61 25.2435 396.818 29.8438 401.237 33.5069C405.656 37.1701 411.294 39 418.154 39C420.596 39 422.888 38.7001 425.026 38.1072C427.163 37.5109 428.735 36.7408 429.741 35.7934V38.3696H441.004V16.503H415.304H415.3Z" fill="var(--fill-0, black)"/>
<path id="Vector_9" d="M315.14 14.3494H296.175V0.630406H283.942V38.3696H296.175V24.3337H315.14V38.3696H327.369V0.630406H315.14V14.3494Z" fill="var(--fill-0, black)"/>
<path id="Vector_10" d="M252.398 12.8262C254.428 11.1088 256.985 10.2501 260.076 10.2501C262.696 10.2501 264.914 10.8907 266.731 12.1685C268.544 13.4464 269.756 15.1911 270.367 17.3992L281.842 12.6695C280.299 8.60419 277.647 5.47942 273.895 3.28834C270.14 1.09725 265.554 0.0034076 260.129 0.0034076C253.341 0.0034076 247.773 1.83329 243.428 5.49646C239.082 9.15963 236.909 13.828 236.909 19.5017C236.909 25.1754 239.082 29.8472 243.428 33.5104C247.773 37.1735 253.341 39.0034 260.129 39.0034C265.554 39.0034 270.14 37.9096 273.895 35.7185C277.647 33.5274 280.299 30.4026 281.842 26.3374L270.367 21.6076C269.756 23.8157 268.544 25.557 266.731 26.8383C264.918 28.1161 262.7 28.7567 260.076 28.7567C256.988 28.7567 254.428 27.898 252.398 26.1806C250.369 24.4632 249.352 22.238 249.352 19.5051C249.352 16.7722 250.365 14.5471 252.398 12.8296V12.8262Z" fill="var(--fill-0, black)"/>
<path id="Vector_11" d="M137.066 4.36173C132.288 -0.299869 124.725 -0.592923 119.597 3.48257C119.485 3.47916 119.373 3.47916 119.258 3.48257C114.13 -0.592923 106.567 -0.299869 101.789 4.36173C96.9645 9.06763 96.706 16.5337 101.003 21.5395C101.072 21.6553 101.156 21.7644 101.258 21.8632L116.589 36.8191C118.158 38.3492 120.701 38.3492 122.266 36.8191L137.597 21.8632C137.699 21.7644 137.783 21.6553 137.852 21.5395C142.149 16.5337 141.891 9.06763 137.066 4.36173Z" fill="var(--fill-0, #FF0000)"/>
</g>
<defs>
<clipPath id="clip0_5_673">
<rect width="441" height="39" fill="white"/>
</clipPath>
</defs>
</svg>
