<svg preserveAspectRatio="none" width="100%" height="100%" overflow="visible" style="display: block;" viewBox="0 0 1133 103" fill="none" xmlns="http://www.w3.org/2000/svg">
<g id="WELOVEPITCHING" clip-path="url(#clip0_5_655)">
<path id="Vector" d="M440.609 11.0335C433.223 4.78777 422.982 1.66492 409.88 1.66492H349.92C352.307 3.20384 354.551 5.00376 356.606 7.05566C363.696 14.1653 367.825 23.6059 368.237 33.6404C368.641 43.4679 365.464 53.0254 359.272 60.6031C358.886 61.179 358.446 61.719 357.97 62.196L345.935 74.2644V101.326H377.356V72.7345H409.889C422.991 72.7345 433.231 69.6116 440.618 63.3659C448.004 57.1202 451.692 48.3997 451.692 37.2042C451.692 26.0087 448.004 17.2882 440.618 11.0425L440.609 11.0335ZM417.418 44.1429C415.246 45.8078 412.177 46.6447 408.21 46.6447H377.338V27.7637H408.21C412.177 27.7637 415.246 28.5916 417.418 30.2655C419.59 31.9305 420.667 34.2433 420.667 37.2042C420.667 40.1651 419.581 42.4779 417.418 44.1429Z" fill="var(--fill-0, black)"/>
<path id="Vector_2" d="M200.574 63.9869H257.473L255.696 62.205C255.211 61.719 254.78 61.188 254.394 60.6031C249.189 54.2314 246.12 46.4647 245.518 38.3021H200.583V28.0336H246.057C247.511 20.123 251.316 12.8244 257.06 7.05566C259.115 4.99476 261.359 3.20384 263.746 1.66492H169.71V101.326H266.609V74.9484H200.583V63.9869H200.574Z" fill="var(--fill-0, black)"/>
<path id="Vector_3" d="M115.028 59.9641L97.8682 1.66492H68.6558L51.4963 59.9641L32.533 1.66492H0L32.533 101.335H65.2006L82.7818 43.0269L100.22 101.335H133.031L165.555 1.66492H134L115.028 59.9641Z" fill="var(--fill-0, black)"/>
<path id="Vector_4" d="M490.023 1.66492H458.603V101.326H490.023V1.66492Z" fill="var(--fill-0, black)"/>
<path id="Vector_5" d="M975.612 57.1922L925.776 1.66492H894.634V101.335H925.363V42.3339L978.52 101.335H1006.34V1.66492H975.612V57.1922Z" fill="var(--fill-0, black)"/>
<path id="Vector_6" d="M610.031 1.66492H497.777V28.0426H538.19V101.335H569.619V28.0426H610.031V1.66492Z" fill="var(--fill-0, black)"/>
<path id="Vector_7" d="M883.56 1.66492H852.14V101.326H883.56V1.66492Z" fill="var(--fill-0, black)"/>
<path id="Vector_8" d="M1066.97 43.5849V67.3167H1100.48C1098.35 70.1876 1095.01 72.4285 1090.44 74.0484C1085.87 75.6683 1080.59 76.4783 1074.59 76.4783C1066.29 76.4783 1059.44 74.2374 1054.03 69.7466C1048.64 65.2558 1045.94 59.4061 1045.94 52.1885C1045.94 44.9708 1048.64 38.6081 1054.03 33.9374C1059.44 29.2666 1066.24 26.9267 1074.45 26.9267C1080.91 26.9267 1086.35 28.2676 1090.78 30.9495C1095.22 33.6314 1098.26 37.3302 1099.92 42.055L1131.34 31.7865C1127.37 21.8869 1120.5 14.1113 1110.72 8.46859C1100.93 2.82586 1089.3 0 1075.83 0C1057.56 0 1042.65 4.78777 1031.12 14.3633C1019.59 23.9388 1013.82 36.3222 1013.82 51.4955C1013.82 66.6688 1019.49 78.8182 1030.84 88.4927C1042.19 98.1672 1056.68 103 1074.31 103C1080.58 103 1086.47 102.208 1091.96 100.642C1097.45 99.0672 1101.49 97.0333 1104.07 94.5314V101.335H1133.01V43.5849H1066.98H1066.97Z" fill="var(--fill-0, black)"/>
<path id="Vector_9" d="M809.645 37.8972H760.922V1.66492H729.492V101.335H760.922V64.2659H809.645V101.335H841.065V1.66492H809.645V37.8972Z" fill="var(--fill-0, black)"/>
<path id="Vector_10" d="M648.452 33.8744C653.666 29.3386 660.235 27.0707 668.178 27.0707C674.909 27.0707 680.608 28.7626 685.275 32.1374C689.932 35.5123 693.047 40.1201 694.617 45.9518L724.099 33.4604C720.132 22.7239 713.32 14.4713 703.681 8.68458C694.034 2.89786 682.25 0.00899956 668.312 0.00899956C650.875 0.00899956 636.569 4.84176 625.405 14.5163C614.24 24.1908 608.658 36.5202 608.658 51.5045C608.658 66.4888 614.24 78.8272 625.405 88.5017C636.569 98.1762 650.875 103.009 668.312 103.009C682.25 103.009 694.034 100.12 703.681 94.3334C713.32 88.5467 720.132 80.2941 724.099 69.5576L694.617 57.0662C693.047 62.898 689.932 67.4967 685.275 70.8806C680.617 74.2554 674.918 75.9473 668.178 75.9473C660.244 75.9473 653.666 73.6794 648.452 69.1436C643.237 64.6079 640.626 58.7312 640.626 51.5135C640.626 44.2959 643.228 38.4191 648.452 33.8834V33.8744Z" fill="var(--fill-0, black)"/>
<path id="Vector_11" d="M352.146 11.5194C339.869 -0.791962 320.439 -1.56592 307.264 9.19755C306.977 9.18855 306.689 9.18855 306.393 9.19755C293.219 -1.56592 273.789 -0.791962 261.511 11.5194C249.117 23.9478 248.453 43.6659 259.492 56.8862C259.671 57.1922 259.887 57.4802 260.147 57.7412L299.537 97.2403C303.566 101.281 310.1 101.281 314.12 97.2403L353.51 57.7412C353.77 57.4802 353.986 57.1922 354.165 56.8862C365.204 43.6659 364.54 23.9478 352.146 11.5194Z" fill="var(--fill-0, #FF0000)"/>
</g>
<defs>
<clipPath id="clip0_5_655">
<rect width="1133" height="103" fill="white"/>
</clipPath>
</defs>
</svg>
